<svg xmlns="http://www.w3.org/2000/svg" enable-background="new 0 0 512 512" viewBox="0 0 512 512"><path fill="#fabd3b" d="M278.8,300.5c3.4-4.7,5.4-10.4,5.4-16.6c0-15.6-12.6-28.2-28.2-28.2s-28.2,12.6-28.2,28.2
	c0,6.2,2,11.9,5.4,16.6l0,0c0,0,28.8,50.4,0,111.6H256h22.8C250,350.9,278.8,300.5,278.8,300.5L278.8,300.5z"/><path fill="#ffd759" d="M349.8,14h-94.2h0h-94.2c0,0-24.6,268.6,94.2,268.6l0,0h0l0,0l0,0C378.4,282.6,349.8,14,349.8,14z"/><path fill="#fab72f" d="M307,420.2c0,4.4-3.6,8-8,8h-85.9c-4.4,0-8-3.6-8-8l0,0c0-4.4,3.6-8,8-8h85.9C303.4,412.1,307,415.7,307,420.2
	L307,420.2z"/><rect width="119.3" height="53" x="196.4" y="428.2" fill="#ffd759"/><polygon fill="#ffd759" points="315.6 481.2 256 481.2 196.4 481.2 183.6 506 256 506 328.4 506"/><path fill="#fab72f" d="M358.2,14c0,4.4-3.6,8-8,8H161.8c-4.4,0-8-3.6-8-8l0,0c0-4.4,3.6-8,8-8h188.4C354.6,6,358.2,9.6,358.2,14
	L358.2,14z"/><rect width="102" height="37.9" x="205" y="436.7" fill="#fab72f"/><circle cx="256" cy="119" r="63.5" fill="#fab72f"/><path fill="#ffd759" d="M250.1 158.9v-52.4c0-2.7.1-5.3.6-8.1l-17.4 4.5-1.9-11 18.7-7.4h16.4v74.4H250.1zM176.1 195.7c-42.5-26-86.4-90.3-88.6-129.6-.6-10.2 2.2-19.2 7.4-23.3 8.4-6.5 16-6.6 24.1-5 13.3 2.7 24.6 11.6 32.5 20.3-.3 0-.5-.1-.8-.1-5.2 0-9.4 4.2-9.4 9.4 0 5.2 4.2 9.4 9.4 9.4 4.6 0 8.5-3.4 9.2-7.8 1.4 2.2 2.5 4.2 3.2 5.7l1-6.4c-.6-1.5-16.2-35.7-42.2-42.2-8.4-2.1-16.6-2-24.8 1.4C96.6 19.9 90.3 14 82.7 14c-8 0-14.5 6.5-14.5 14.5 0 7 5 12.9 11.6 14.3-3 5.8-5 13.7-4.4 23.9 2.2 39.3 38.4 91.8 85.6 124-5.7.6-10.2 5.5-10.2 11.4 0 6.3 5.1 11.4 11.4 11.4 6.3 0 11.4-5.1 11.4-11.4 0-1.3-.2-2.6-.7-3.8 1 .6 2.1 1.2 3.1 1.8V195.7zM443.8 28.5c0-8-6.5-14.5-14.5-14.5-7.7 0-14 6-14.5 13.6-8.4-3.7-16.8-3.8-25.4-1.7-26 6.5-41.6 40.8-42.2 42.2l1 6.4c.7-1.5 1.8-3.4 3.2-5.7.7 4.4 4.6 7.8 9.2 7.8 5.2 0 9.4-4.2 9.4-9.4 0-5.2-4.2-9.4-9.4-9.4-.3 0-.5.1-.8.1 7.9-8.7 19.2-17.5 32.5-20.3 8.1-1.7 15.7-1.6 24.1 5 5.3 4.1 8 13.1 7.4 23.3-2.2 39.4-46 103.6-88.6 129.6v4.4c1-.6 2.1-1.2 3.1-1.8-.4 1.2-.7 2.5-.7 3.8 0 6.3 5.1 11.4 11.4 11.4 6.3 0 11.4-5.1 11.4-11.4 0-5.9-4.5-10.7-10.2-11.4 47.2-32.2 83.5-84.6 85.6-124 .6-10.1-1.5-18-4.4-23.8C438.5 41.8 443.8 35.8 443.8 28.5z"/></svg>