<svg xmlns="http://www.w3.org/2000/svg" width="25" height="25" viewBox="0 0 25 25" fill="white"><path fill-rule="evenodd" d="M 12.5 0 A 12.5 12.5 0 0 0 0 12.5 A 12.5 12.5 0 0 0 12.5 25 A 12.5 12.5 0 0 0 25 12.5 A 12.5 12.5 0 0 0 12.5 0 z M 11.013672 6.9921875 L 14.001953 6.9921875 C 14.550411 6.9921875 15.007812 7.4495469 15.007812 7.9980469 L 15.007812 9.0058594 L 18 9.0058594 L 18 10.005859 L 17 10.005859 L 17 17.005859 C 17 17.551259 16.545352 18.005859 16 18.005859 L 9 18.005859 C 8.4546484 18.005859 8 17.551259 8 17.005859 L 8 10.005859 L 7 10.005859 L 7 9.0058594 L 10.007812 9.0058594 L 10.007812 7.9980469 C 10.007813 7.4495469 10.465214 6.9921875 11.013672 6.9921875 z M 11.013672 7.9882812 C 11.001892 7.9882812 11.007812 7.988 11.007812 8 L 11.007812 9.0078125 L 14.007812 9.0078125 L 14.007812 8 C 14.007812 7.98 14.013737 7.9882812 14.001953 7.9882812 L 11.013672 7.9882812 z M 9 10.005859 L 9 17.005859 L 10 17.005859 L 10 11.005859 L 11 11.005859 L 11 17.005859 L 12 17.005859 L 12 11.005859 L 13 11.005859 L 13 17.005859 L 14 17.005859 L 14 11.005859 L 15 11.005859 L 15 17.005859 L 16 17.005859 L 16 10.005859 L 9 10.005859 z "/></svg>