<svg width="452" height="451" viewBox="0 0 452 451" fill="none" xmlns="http://www.w3.org/2000/svg">
<path d="M152.194 57.5235C167.567 89.2928 165.52 122.067 147.623 130.727C129.726 139.388 102.756 120.654 87.383 88.8846C72.0104 57.1152 76.6029 29.1601 94.5 20.5C112.397 11.8399 142.263 37 152.194 57.5235Z" fill="white"/>
<ellipse cx="126.672" cy="81.7519" rx="23.6185" ry="43.8418" transform="rotate(-25.8216 126.672 81.7519)" fill="#2C2C2C"/>
<ellipse rx="36" ry="63.9039" transform="matrix(-0.900155 -0.43557 -0.43557 0.900155 311.789 73.204)" fill="white"/>
<ellipse rx="23.6185" ry="43.8418" transform="matrix(-0.900155 -0.43557 -0.43557 0.900155 304.905 81.7519)" fill="#2C2C2C"/>
<ellipse cx="216.548" cy="226.5" rx="133" ry="153.5" fill="white"/>
<path d="M103.639 437.22C26.9803 437.348 0.272574 383.601 0.164266 318.707C0.0559575 253.814 51.4991 220.228 128.158 220.1C204.816 219.972 277.662 253.351 277.77 318.244C277.878 383.137 180.298 437.092 103.639 437.22Z" fill="white"/>
<path d="M103.639 437.22C26.9803 437.348 0.272574 383.601 0.164266 318.707C0.0559575 253.814 51.4991 220.228 128.158 220.1C204.816 219.972 277.662 253.351 277.77 318.244C277.878 383.137 180.298 437.092 103.639 437.22Z" fill="white"/>
<path d="M330.054 438.767C406.624 442.467 435.807 390.022 438.939 325.205C442.071 260.387 392.249 224.44 315.679 220.74C239.11 217.04 164.789 246.988 161.657 311.806C158.525 376.624 253.485 435.067 330.054 438.767Z" fill="white"/>
<rect x="132.548" y="322" width="167" height="129" rx="49" fill="white"/>
<path d="M210.329 301.435C214.265 304.695 219.927 304.815 223.997 301.725L239.867 289.677C240.21 289.417 240.575 289.188 240.959 288.994V288.994C248.053 285.407 244.828 274.656 236.931 275.566L218.178 277.727C217.427 277.813 216.67 277.813 215.919 277.727L198.693 275.742C190.901 274.844 187.818 285.524 194.89 288.916V288.916C195.401 289.162 195.88 289.469 196.317 289.83L210.329 301.435Z" fill="#2C2C2C"/>
<path d="M183.548 389.5L213.548 384V417H203.548C192.503 417 183.548 408.046 183.548 397V389.5Z" fill="#2C2C2C"/>
<path d="M251.548 389.5L221.548 384V417H231.548C242.594 417 251.548 408.046 251.548 397V389.5Z" fill="#2C2C2C"/>
<path d="M299.548 363.065C299.548 393.536 255.048 411.813 217.548 384.983C184.048 411.813 133.548 393.536 133.548 363.065C133.548 332.594 158.048 430.33 217.548 363.065C275.048 430.33 299.548 332.594 299.548 363.065Z" fill="#2C2C2C"/>
<ellipse cx="167.005" cy="222.225" rx="21.4854" ry="30.3443" transform="rotate(12.3008 167.005 222.225)" fill="#2C2C2C"/>
<circle cx="166.048" cy="222.5" r="7.5" fill="white"/>
<ellipse rx="21.4854" ry="30.3443" transform="matrix(-0.977043 0.213044 0.213044 0.977043 266.092 222.225)" fill="#2C2C2C"/>
<circle r="7.5" transform="matrix(-1 0 0 1 267.048 222.5)" fill="white"/>
</svg>
