<svg xmlns="http://www.w3.org/2000/svg" viewBox="0 0 64 64"><g data-name="More"><path fill="#222" d="M45,52.5H19A7.5083,7.5083,0,0,1,11.5,45V19A7.5083,7.5083,0,0,1,19,11.5H45A7.5083,7.5083,0,0,1,52.5,19V45A7.5083,7.5083,0,0,1,45,52.5Zm-26-38A4.505,4.505,0,0,0,14.5,19V45A4.505,4.505,0,0,0,19,49.5H45A4.505,4.505,0,0,0,49.5,45V19A4.505,4.505,0,0,0,45,14.5Z"/><path fill="#222" d="M27.2432,42.6313a1.5,1.5,0,0,1-.9327-2.6752L36.3438,32,26.3105,24.0439a1.5,1.5,0,1,1,1.8633-2.3505L39.69,30.8247a1.4995,1.4995,0,0,1,0,2.3506L28.1738,42.3066A1.4916,1.4916,0,0,1,27.2432,42.6313Z"/></g></svg>